# xmcd
#
# Track frame offsets:
#  150
#  16900
#  36902
#  53715
#  76750
#  101100
#  110602
#  129995
#  143387
#  157800
#  189207
#  206427
#  228900
#  247682
#
# Disc length: 3533 seconds
#
# Revision: 0
# Processed by: cddbd v1.5.1PL2 Copyright (c) Steve Scherf et al.
# Submitted via: Collectorz.com_Music_Collector 6.11
#
DISCID=9c0dcb0e
DTITLE=Bill Lupkin and Friends - Where I Come From
DYEAR=2006
DGENRE=Blues
TTITLE0=What's With That?
TTITLE1=The Sun Is Shinin'
TTITLE2=All Last Night
TTITLE3=Move Out To The Country
TTITLE4=Bad Feelin'
TTITLE5=Madison and Sacramento
TTITLE6=You Got Me Nervous
TTITLE7=Can't Hide A Lie
TTITLE8=I Want To Love You
TTITLE9=Chasin' A Dream
TTITLE10=What You Gonna Do?
TTITLE11=Early Hours Of The Mornin'
TTITLE12=Poor Man's Treasure (Woman I Love)
TTITLE13=Move Out To The Country
EXTD=
EXTT0=
EXTT1=
EXTT2=
EXTT3=
EXTT4=
EXTT5=
EXTT6=
EXTT7=
EXTT8=
EXTT9=
EXTT10=
EXTT11=
EXTT12=
EXTT13=
PLAYORDER=
